solid ascii
  facet normal -1.000000e+000 0.000000e+000 0.000000e+000
    outer loop
      vertex   -1.778000e+001 1.016000e+001 0.000000e+000
      vertex   -1.778000e+001 0.000000e+000 0.000000e+000
      vertex   -1.778000e+001 1.016000e+001 1.270000e+001
    endloop
  endfacet
  facet normal -1.000000e+000 -0.000000e+000 0.000000e+000
    outer loop
      vertex   -1.778000e+001 1.016000e+001 1.270000e+001
      vertex   -1.778000e+001 0.000000e+000 0.000000e+000
      vertex   -1.778000e+001 0.000000e+000 1.270000e+001
    endloop
  endfacet
  facet normal -6.507912e-001 7.592567e-001 0.000000e+000
    outer loop
      vertex   0.000000e+000 2.539999e+001 0.000000e+000
      vertex   -1.778000e+001 1.016000e+001 0.000000e+000
      vertex   0.000000e+000 2.539999e+001 1.270000e+001
    endloop
  endfacet
  facet normal -6.507912e-001 7.592567e-001 0.000000e+000
    outer loop
      vertex   0.000000e+000 2.539999e+001 1.270000e+001
      vertex   -1.778000e+001 1.016000e+001 0.000000e+000
      vertex   -1.778000e+001 1.016000e+001 1.270000e+001
    endloop
  endfacet
  facet normal 1.000000e+000 5.540071e-017 5.817072e-017
    outer loop
      vertex   7.387682e-016 1.206500e+001 0.000000e+000
      vertex   0.000000e+000 2.539999e+001 0.000000e+000
      vertex   0.000000e+000 1.206500e+001 1.270000e+001
    endloop
  endfacet
  facet normal 1.000000e+000 -0.000000e+000 0.000000e+000
    outer loop
      vertex   0.000000e+000 1.206500e+001 1.270000e+001
      vertex   0.000000e+000 2.539999e+001 0.000000e+000
      vertex   0.000000e+000 2.539999e+001 1.270000e+001
    endloop
  endfacet
  facet normal 9.997747e-001 -2.122538e-002 -2.377455e-005
    outer loop
      vertex   -1.205413e+001 5.120531e-001 0.000000e+000
      vertex   -1.205383e+001 5.190632e-001 6.350000e+000
      vertex   -1.206500e+001 -1.477536e-015 0.000000e+000
    endloop
  endfacet
  facet normal 9.979731e-001 -6.363790e-002 2.313209e-005
    outer loop
      vertex   -1.205413e+001 5.120531e-001 0.000000e+000
      vertex   -1.202154e+001 1.023183e+000 0.000000e+000
      vertex   -1.205383e+001 5.190632e-001 6.350000e+000
    endloop
  endfacet
  facet normal 9.979172e-001 -6.450845e-002 -4.626419e-005
    outer loop
      vertex   -1.205383e+001 5.190632e-001 6.350000e+000
      vertex   -1.202154e+001 1.023183e+000 0.000000e+000
      vertex   -1.202034e+001 1.037165e+000 6.350000e+000
    endloop
  endfacet
  facet normal 9.943730e-001 -1.059357e-001 -4.562172e-005
    outer loop
      vertex   -1.202154e+001 1.023183e+000 1.270000e+001
      vertex   -1.202034e+001 1.037165e+000 6.350000e+000
      vertex   -1.196728e+001 1.532470e+000 1.270000e+001
    endloop
  endfacet
  facet normal 9.979172e-001 -6.450845e-002 4.626419e-005
    outer loop
      vertex   -1.202154e+001 1.023183e+000 1.270000e+001
      vertex   -1.205383e+001 5.190632e-001 6.350000e+000
      vertex   -1.202034e+001 1.037165e+000 6.350000e+000
    endloop
  endfacet
  facet normal 9.979731e-001 -6.363790e-002 -2.313209e-005
    outer loop
      vertex   -1.202154e+001 1.023183e+000 1.270000e+001
      vertex   -1.205413e+001 5.120531e-001 1.270000e+001
      vertex   -1.205383e+001 5.190632e-001 6.350000e+000
    endloop
  endfacet
  facet normal 9.997624e-001 -2.179906e-002 2.314066e-005
    outer loop
      vertex   -1.205383e+001 5.190632e-001 6.350000e+000
      vertex   -1.205413e+001 5.120531e-001 1.270000e+001
      vertex   -1.206500e+001 -1.477536e-015 0.000000e+000
    endloop
  endfacet
  facet normal 9.997747e-001 -2.122538e-002 0.000000e+000
    outer loop
      vertex   -1.206500e+001 -1.477536e-015 0.000000e+000
      vertex   -1.205413e+001 5.120531e-001 1.270000e+001
      vertex   -1.206500e+001 -1.477536e-015 1.270000e+001
    endloop
  endfacet
  facet normal 9.943730e-001 -1.059357e-001 4.562172e-005
    outer loop
      vertex   -1.202154e+001 1.023183e+000 0.000000e+000
      vertex   -1.196728e+001 1.532470e+000 0.000000e+000
      vertex   -1.202034e+001 1.037165e+000 6.350000e+000
    endloop
  endfacet
  facet normal 9.942179e-001 -1.073813e-001 -6.843258e-005
    outer loop
      vertex   -1.202034e+001 1.037165e+000 6.350000e+000
      vertex   -1.196728e+001 1.532470e+000 0.000000e+000
      vertex   -1.196459e+001 1.553347e+000 6.350000e+000
    endloop
  endfacet
  facet normal 9.889810e-001 -1.480427e-001 -6.746887e-005
    outer loop
      vertex   -1.196728e+001 1.532470e+000 1.270000e+001
      vertex   -1.196459e+001 1.553347e+000 6.350000e+000
      vertex   -1.189146e+001 2.038995e+000 1.270000e+001
    endloop
  endfacet
  facet normal 9.942179e-001 -1.073813e-001 6.843258e-005
    outer loop
      vertex   -1.196728e+001 1.532470e+000 1.270000e+001
      vertex   -1.202034e+001 1.037165e+000 6.350000e+000
      vertex   -1.196459e+001 1.553347e+000 6.350000e+000
    endloop
  endfacet
  facet normal 9.889810e-001 -1.480427e-001 6.746887e-005
    outer loop
      vertex   -1.196728e+001 1.532470e+000 0.000000e+000
      vertex   -1.189146e+001 2.038995e+000 0.000000e+000
      vertex   -1.196459e+001 1.553347e+000 6.350000e+000
    endloop
  endfacet
  facet normal 9.886776e-001 -1.500554e-001 -8.995849e-005
    outer loop
      vertex   -1.196459e+001 1.553347e+000 6.350000e+000
      vertex   -1.189146e+001 2.038995e+000 0.000000e+000
      vertex   -1.188668e+001 2.066652e+000 6.350000e+000
    endloop
  endfacet
  facet normal 9.818068e-001 -1.898828e-001 -8.867354e-005
    outer loop
      vertex   -1.189146e+001 2.038995e+000 1.270000e+001
      vertex   -1.188668e+001 2.066652e+000 6.350000e+000
      vertex   -1.179420e+001 2.541845e+000 1.270000e+001
    endloop
  endfacet
  facet normal 9.886776e-001 -1.500554e-001 8.995849e-005
    outer loop
      vertex   -1.189146e+001 2.038995e+000 1.270000e+001
      vertex   -1.196459e+001 1.553347e+000 6.350000e+000
      vertex   -1.188668e+001 2.066652e+000 6.350000e+000
    endloop
  endfacet
  facet normal 9.818068e-001 -1.898828e-001 8.867354e-005
    outer loop
      vertex   -1.189146e+001 2.038995e+000 0.000000e+000
      vertex   -1.179420e+001 2.541845e+000 0.000000e+000
      vertex   -1.188668e+001 2.066652e+000 6.350000e+000
    endloop
  endfacet
  facet normal 9.813065e-001 -1.924516e-001 -1.108419e-004
    outer loop
      vertex   -1.188668e+001 2.066652e+000 6.350000e+000
      vertex   -1.179420e+001 2.541845e+000 0.000000e+000
      vertex   -1.178676e+001 2.576130e+000 6.350000e+000
    endloop
  endfacet
  facet normal 9.728633e-001 -2.313808e-001 -1.092357e-004
    outer loop
      vertex   -1.179420e+001 2.541845e+000 1.270000e+001
      vertex   -1.178676e+001 2.576130e+000 6.350000e+000
      vertex   -1.167570e+001 3.040115e+000 1.270000e+001
    endloop
  endfacet
  facet normal 9.813065e-001 -1.924516e-001 1.108419e-004
    outer loop
      vertex   -1.179420e+001 2.541845e+000 1.270000e+001
      vertex   -1.188668e+001 2.066652e+000 6.350000e+000
      vertex   -1.178676e+001 2.576130e+000 6.350000e+000
    endloop
  endfacet
  facet normal 9.728633e-001 -2.313808e-001 1.092357e-004
    outer loop
      vertex   -1.179420e+001 2.541845e+000 0.000000e+000
      vertex   -1.167570e+001 3.040115e+000 0.000000e+000
      vertex   -1.178676e+001 2.576130e+000 6.350000e+000
    endloop
  endfacet
  facet normal 9.721182e-001 -2.344914e-001 -1.310828e-004
    outer loop
      vertex   -1.178676e+001 2.576130e+000 6.350000e+000
      vertex   -1.167570e+001 3.040115e+000 0.000000e+000
      vertex   -1.166502e+001 3.080838e+000 6.350000e+000
    endloop
  endfacet
  facet normal 9.621666e-001 -2.724618e-001 -1.291554e-004
    outer loop
      vertex   -1.167570e+001 3.040115e+000 1.270000e+001
      vertex   -1.166502e+001 3.080838e+000 6.350000e+000
      vertex   -1.153615e+001 3.532907e+000 1.270000e+001
    endloop
  endfacet
  facet normal 9.721182e-001 -2.344914e-001 1.310828e-004
    outer loop
      vertex   -1.167570e+001 3.040115e+000 1.270000e+001
      vertex   -1.178676e+001 2.576130e+000 6.350000e+000
      vertex   -1.166502e+001 3.080838e+000 6.350000e+000
    endloop
  endfacet
  facet normal 9.621666e-001 -2.724618e-001 1.291554e-004
    outer loop
      vertex   -1.167570e+001 3.040115e+000 0.000000e+000
      vertex   -1.153615e+001 3.532907e+000 0.000000e+000
      vertex   -1.166502e+001 3.080838e+000 6.350000e+000
    endloop
  endfacet
  facet normal 9.611298e-001 -2.760970e-001 -1.506813e-004
    outer loop
      vertex   -1.166502e+001 3.080838e+000 6.350000e+000
      vertex   -1.153615e+001 3.532907e+000 0.000000e+000
      vertex   -1.152167e+001 3.579840e+000 6.350000e+000
    endloop
  endfacet
  facet normal 9.497360e-001 -3.130518e-001 -1.484326e-004
    outer loop
      vertex   -1.153615e+001 3.532907e+000 1.270000e+001
      vertex   -1.152167e+001 3.579840e+000 6.350000e+000
      vertex   -1.137582e+001 4.019332e+000 1.270000e+001
    endloop
  endfacet
  facet normal 9.611298e-001 -2.760970e-001 1.506813e-004
    outer loop
      vertex   -1.153615e+001 3.532907e+000 1.270000e+001
      vertex   -1.166502e+001 3.080838e+000 6.350000e+000
      vertex   -1.152167e+001 3.579840e+000 6.350000e+000
    endloop
  endfacet
  facet normal 9.497360e-001 -3.130518e-001 1.484326e-004
    outer loop
      vertex   -1.153615e+001 3.532907e+000 0.000000e+000
      vertex   -1.137582e+001 4.019332e+000 0.000000e+000
      vertex   -1.152167e+001 3.579840e+000 6.350000e+000
    endloop
  endfacet
  facet normal 9.483616e-001 -3.171913e-001 -1.696372e-004
    outer loop
      vertex   -1.152167e+001 3.579840e+000 6.350000e+000
      vertex   -1.137582e+001 4.019332e+000 0.000000e+000
      vertex   -1.135699e+001 4.072214e+000 6.350000e+000
    endloop
  endfacet
  facet normal 9.355940e-001 -3.530777e-001 -1.670672e-004
    outer loop
      vertex   -1.137582e+001 4.019332e+000 1.270000e+001
      vertex   -1.135699e+001 4.072214e+000 6.350000e+000
      vertex   -1.119498e+001 4.498513e+000 1.270000e+001
    endloop
  endfacet
  facet normal 9.483616e-001 -3.171913e-001 1.696372e-004
    outer loop
      vertex   -1.137582e+001 4.019332e+000 1.270000e+001
      vertex   -1.152167e+001 3.579840e+000 6.350000e+000
      vertex   -1.135699e+001 4.072214e+000 6.350000e+000
    endloop
  endfacet
  facet normal 9.355940e-001 -3.530777e-001 1.670672e-004
    outer loop
      vertex   -1.137582e+001 4.019332e+000 0.000000e+000
      vertex   -1.119498e+001 4.498513e+000 0.000000e+000
      vertex   -1.135699e+001 4.072214e+000 6.350000e+000
    endloop
  endfacet
  facet normal 9.338372e-001 -3.576982e-001 -1.879506e-004
    outer loop
      vertex   -1.135699e+001 4.072214e+000 6.350000e+000
      vertex   -1.119498e+001 4.498513e+000 0.000000e+000
      vertex   -1.117128e+001 4.557047e+000 6.350000e+000
    endloop
  endfacet
  facet normal 9.197660e-001 -3.924673e-001 -1.850594e-004
    outer loop
      vertex   -1.119498e+001 4.498513e+000 1.270000e+001
      vertex   -1.117128e+001 4.557047e+000 6.350000e+000
      vertex   -1.099397e+001 4.969589e+000 1.270000e+001
    endloop
  endfacet
  facet normal 9.338372e-001 -3.576982e-001 1.879506e-004
    outer loop
      vertex   -1.119498e+001 4.498513e+000 1.270000e+001
      vertex   -1.135699e+001 4.072214e+000 6.350000e+000
      vertex   -1.117128e+001 4.557047e+000 6.350000e+000
    endloop
  endfacet
  facet normal 9.197660e-001 -3.924673e-001 1.850594e-004
    outer loop
      vertex   -1.119498e+001 4.498513e+000 0.000000e+000
      vertex   -1.099397e+001 4.969589e+000 0.000000e+000
      vertex   -1.117128e+001 4.557047e+000 6.350000e+000
    endloop
  endfacet
  facet normal 9.175836e-001 -3.975428e-001 -2.056215e-004
    outer loop
      vertex   -1.117128e+001 4.557047e+000 6.350000e+000
      vertex   -1.099397e+001 4.969589e+000 0.000000e+000
      vertex   -1.096488e+001 5.033441e+000 6.350000e+000
    endloop
  endfacet
  facet normal 9.022804e-001 -4.311496e-001 -2.024090e-004
    outer loop
      vertex   -1.099397e+001 4.969589e+000 1.270000e+001
      vertex   -1.096488e+001 5.033441e+000 6.350000e+000
      vertex   -1.077315e+001 5.431708e+000 1.270000e+001
    endloop
  endfacet
  facet normal 9.175836e-001 -3.975428e-001 2.056215e-004
    outer loop
      vertex   -1.099397e+001 4.969589e+000 1.270000e+001
      vertex   -1.117128e+001 4.557047e+000 6.350000e+000
      vertex   -1.096488e+001 5.033441e+000 6.350000e+000
    endloop
  endfacet
  facet normal 9.022804e-001 -4.311496e-001 2.024090e-004
    outer loop
      vertex   -1.099397e+001 4.969589e+000 0.000000e+000
      vertex   -1.077315e+001 5.431708e+000 0.000000e+000
      vertex   -1.096488e+001 5.033441e+000 6.350000e+000
    endloop
  endfacet
  facet normal 8.996308e-001 -4.366512e-001 -2.226498e-004
    outer loop
      vertex   -1.096488e+001 5.033441e+000 6.350000e+000
      vertex   -1.077315e+001 5.431708e+000 0.000000e+000
      vertex   -1.073818e+001 5.500514e+000 6.350000e+000
    endloop
  endfacet
  facet normal 8.831689e-001 -4.690550e-001 -2.191161e-004
    outer loop
      vertex   -1.077315e+001 5.431708e+000 1.270000e+001
      vertex   -1.073818e+001 5.500514e+000 6.350000e+000
      vertex   -1.053292e+001 5.884039e+000 1.270000e+001
    endloop
  endfacet
  facet normal 8.996308e-001 -4.366512e-001 2.226498e-004
    outer loop
      vertex   -1.077315e+001 5.431708e+000 1.270000e+001
      vertex   -1.096488e+001 5.033441e+000 6.350000e+000
      vertex   -1.073818e+001 5.500514e+000 6.350000e+000
    endloop
  endfacet
  facet normal 8.831689e-001 -4.690550e-001 2.191161e-004
    outer loop
      vertex   -1.077315e+001 5.431708e+000 0.000000e+000
      vertex   -1.053292e+001 5.884039e+000 0.000000e+000
      vertex   -1.073818e+001 5.500514e+000 6.350000e+000
    endloop
  endfacet
  facet normal 8.800122e-001 -4.749511e-001 -2.390357e-004
    outer loop
      vertex   -1.073818e+001 5.500514e+000 6.350000e+000
      vertex   -1.053292e+001 5.884039e+000 0.000000e+000
      vertex   -1.049160e+001 5.957402e+000 6.350000e+000
    endloop
  endfacet
  facet normal 8.624659e-001 -5.061151e-001 -2.351807e-004
    outer loop
      vertex   -1.053292e+001 5.884039e+000 1.270000e+001
      vertex   -1.049160e+001 5.957402e+000 6.350000e+000
      vertex   -1.027370e+001 6.325767e+000 1.270000e+001
    endloop
  endfacet
  facet normal 8.800122e-001 -4.749511e-001 2.390357e-004
    outer loop
      vertex   -1.053292e+001 5.884039e+000 1.270000e+001
      vertex   -1.073818e+001 5.500514e+000 6.350000e+000
      vertex   -1.049160e+001 5.957402e+000 6.350000e+000
    endloop
  endfacet
  facet normal 8.624659e-001 -5.061151e-001 2.351807e-004
    outer loop
      vertex   -1.053292e+001 5.884039e+000 0.000000e+000
      vertex   -1.027370e+001 6.325767e+000 0.000000e+000
      vertex   -1.049160e+001 5.957402e+000 6.350000e+000
    endloop
  endfacet
  facet normal 8.587639e-001 -5.123714e-001 -2.547790e-004
    outer loop
      vertex   -1.049160e+001 5.957402e+000 6.350000e+000
      vertex   -1.027370e+001 6.325767e+000 0.000000e+000
      vertex   -1.022558e+001 6.403258e+000 6.350000e+000
    endloop
  endfacet
  facet normal 8.402087e-001 -5.422632e-001 -2.506027e-004
    outer loop
      vertex   -1.027370e+001 6.325767e+000 1.270000e+001
      vertex   -1.022558e+001 6.403258e+000 6.350000e+000
      vertex   -9.995969e+000 6.756096e+000 1.270000e+001
    endloop
  endfacet
  facet normal 8.587639e-001 -5.123714e-001 2.547790e-004
    outer loop
      vertex   -1.027370e+001 6.325767e+000 1.270000e+001
      vertex   -1.049160e+001 5.957402e+000 6.350000e+000
      vertex   -1.022558e+001 6.403258e+000 6.350000e+000
    endloop
  endfacet
  facet normal 8.402087e-001 -5.422632e-001 2.506027e-004
    outer loop
      vertex   -1.027370e+001 6.325767e+000 0.000000e+000
      vertex   -9.995969e+000 6.756096e+000 0.000000e+000
      vertex   -1.022558e+001 6.403258e+000 6.350000e+000
    endloop
  endfacet
  facet normal 8.359254e-001 -5.488429e-001 -2.698797e-004
    outer loop
      vertex   -1.022558e+001 6.403258e+000 6.350000e+000
      vertex   -9.995969e+000 6.756096e+000 0.000000e+000
      vertex   -9.940631e+000 6.837257e+000 6.350000e+000
    endloop
  endfacet
  facet normal 8.164373e-001 -5.774340e-001 -2.653822e-004
    outer loop
      vertex   -9.995969e+000 6.756096e+000 1.270000e+001
      vertex   -9.940631e+000 6.837257e+000 6.350000e+000
      vertex   -9.700225e+000 7.174249e+000 1.270000e+001
    endloop
  endfacet
  facet normal 8.359254e-001 -5.488429e-001 2.698797e-004
    outer loop
      vertex   -9.995969e+000 6.756096e+000 1.270000e+001
      vertex   -1.022558e+001 6.403258e+000 6.350000e+000
      vertex   -9.940631e+000 6.837257e+000 6.350000e+000
    endloop
  endfacet
  facet normal 8.164373e-001 -5.774340e-001 2.653822e-004
    outer loop
      vertex   -9.995969e+000 6.756096e+000 0.000000e+000
      vertex   -9.700225e+000 7.174249e+000 0.000000e+000
      vertex   -9.940631e+000 6.837257e+000 6.350000e+000
    endloop
  endfacet
  facet normal 8.115390e-001 -5.842982e-001 -2.843379e-004
    outer loop
      vertex   -9.940631e+000 6.837257e+000 6.350000e+000
      vertex   -9.700225e+000 7.174249e+000 0.000000e+000
      vertex   -9.637273e+000 7.258594e+000 6.350000e+000
    endloop
  endfacet
  facet normal 7.911947e-001 -6.115643e-001 -2.795191e-004
    outer loop
      vertex   -9.700225e+000 7.174249e+000 1.270000e+001
      vertex   -9.637273e+000 7.258594e+000 6.350000e+000
      vertex   -9.387001e+000 7.579474e+000 1.270000e+001
    endloop
  endfacet
  facet normal 8.115390e-001 -5.842982e-001 2.843379e-004
    outer loop
      vertex   -9.700225e+000 7.174249e+000 1.270000e+001
      vertex   -9.940631e+000 6.837257e+000 6.350000e+000
      vertex   -9.637273e+000 7.258594e+000 6.350000e+000
    endloop
  endfacet
  facet normal 7.911947e-001 -6.115643e-001 2.795191e-004
    outer loop
      vertex   -9.700225e+000 7.174249e+000 0.000000e+000
      vertex   -9.387001e+000 7.579474e+000 0.000000e+000
      vertex   -9.637273e+000 7.258594e+000 6.350000e+000
    endloop
  endfacet
  facet normal 7.856498e-001 -6.186714e-001 -2.981536e-004
    outer loop
      vertex   -9.637273e+000 7.258594e+000 6.350000e+000
      vertex   -9.387001e+000 7.579474e+000 0.000000e+000
      vertex   -9.316069e+000 7.666491e+000 6.350000e+000
    endloop
  endfacet
  facet normal 7.645262e-001 -6.445925e-001 -2.930135e-004
    outer loop
      vertex   -9.387001e+000 7.579474e+000 1.270000e+001
      vertex   -9.316069e+000 7.666491e+000 6.350000e+000
      vertex   -9.056861e+000 7.971041e+000 1.270000e+001
    endloop
  endfacet
  facet normal 7.856498e-001 -6.186714e-001 2.981536e-004
    outer loop
      vertex   -9.387001e+000 7.579474e+000 1.270000e+001
      vertex   -9.637273e+000 7.258594e+000 6.350000e+000
      vertex   -9.316069e+000 7.666491e+000 6.350000e+000
    endloop
  endfacet
  facet normal 7.645262e-001 -6.445925e-001 2.930135e-004
    outer loop
      vertex   -9.387001e+000 7.579474e+000 0.000000e+000
      vertex   -9.056861e+000 7.971041e+000 0.000000e+000
      vertex   -9.316069e+000 7.666491e+000 6.350000e+000
    endloop
  endfacet
  facet normal 7.583058e-001 -6.518990e-001 -3.113266e-004
    outer loop
      vertex   -9.316069e+000 7.666491e+000 6.350000e+000
      vertex   -9.056861e+000 7.971041e+000 0.000000e+000
      vertex   -8.977614e+000 8.060191e+000 6.350000e+000
    endloop
  endfacet
  facet normal 7.364801e-001 -6.764592e-001 -3.058653e-004
    outer loop
      vertex   -9.056861e+000 7.971041e+000 1.270000e+001
      vertex   -8.977614e+000 8.060191e+000 6.350000e+000
      vertex   -8.710400e+000 8.348242e+000 1.270000e+001
    endloop
  endfacet
  facet normal 7.583058e-001 -6.518990e-001 3.113266e-004
    outer loop
      vertex   -9.056861e+000 7.971041e+000 1.270000e+001
      vertex   -9.316069e+000 7.666491e+000 6.350000e+000
      vertex   -8.977614e+000 8.060191e+000 6.350000e+000
    endloop
  endfacet
  facet normal 7.364801e-001 -6.764592e-001 3.058653e-004
    outer loop
      vertex   -9.056861e+000 7.971041e+000 0.000000e+000
      vertex   -8.710400e+000 8.348242e+000 0.000000e+000
      vertex   -8.977614e+000 8.060191e+000 6.350000e+000
    endloop
  endfacet
  facet normal 7.295575e-001 -6.839194e-001 -3.238572e-004
    outer loop
      vertex   -8.977614e+000 8.060191e+000 6.350000e+000
      vertex   -8.710400e+000 8.348242e+000 0.000000e+000
      vertex   -8.622534e+000 8.438965e+000 6.350000e+000
    endloop
  endfacet
  facet normal 7.071067e-001 -7.071067e-001 -3.180745e-004
    outer loop
      vertex   -8.710400e+000 8.348242e+000 1.270000e+001
      vertex   -8.622534e+000 8.438965e+000 6.350000e+000
      vertex   -8.348242e+000 8.710400e+000 1.270000e+001
    endloop
  endfacet
  facet normal 7.295575e-001 -6.839194e-001 3.238572e-004
    outer loop
      vertex   -8.710400e+000 8.348242e+000 1.270000e+001
      vertex   -8.977614e+000 8.060191e+000 6.350000e+000
      vertex   -8.622534e+000 8.438965e+000 6.350000e+000
    endloop
  endfacet
  facet normal 7.071067e-001 -7.071067e-001 3.180745e-004
    outer loop
      vertex   -8.710400e+000 8.348242e+000 0.000000e+000
      vertex   -8.348242e+000 8.710400e+000 0.000000e+000
      vertex   -8.622534e+000 8.438965e+000 6.350000e+000
    endloop
  endfacet
  facet normal 6.994583e-001 -7.146733e-001 -3.357451e-004
    outer loop
      vertex   -8.622534e+000 8.438965e+000 6.350000e+000
      vertex   -8.348242e+000 8.710400e+000 0.000000e+000
      vertex   -8.251488e+000 8.802112e+000 6.350000e+000
    endloop
  endfacet
  facet normal 6.764592e-001 -7.364801e-001 -3.296412e-004
    outer loop
      vertex   -8.348242e+000 8.710400e+000 1.270000e+001
      vertex   -8.251488e+000 8.802112e+000 6.350000e+000
      vertex   -7.971041e+000 9.056861e+000 1.270000e+001
    endloop
  endfacet
  facet normal 6.994583e-001 -7.146733e-001 3.357451e-004
    outer loop
      vertex   -8.348242e+000 8.710400e+000 1.270000e+001
      vertex   -8.622534e+000 8.438965e+000 6.350000e+000
      vertex   -8.251488e+000 8.802112e+000 6.350000e+000
    endloop
  endfacet
  facet normal 6.764592e-001 -7.364801e-001 3.296412e-004
    outer loop
      vertex   -8.348242e+000 8.710400e+000 0.000000e+000
      vertex   -7.971041e+000 9.056861e+000 0.000000e+000
      vertex   -8.251488e+000 8.802112e+000 6.350000e+000
    endloop
  endfacet
  facet normal 6.680638e-001 -7.441039e-001 -3.469905e-004
    outer loop
      vertex   -8.251488e+000 8.802112e+000 6.350000e+000
      vertex   -7.971041e+000 9.056861e+000 0.000000e+000
      vertex   -7.865161e+000 9.148960e+000 6.350000e+000
    endloop
  endfacet
  facet normal 6.445925e-001 -7.645262e-001 -3.405653e-004
    outer loop
      vertex   -7.971041e+000 9.056861e+000 1.270000e+001
      vertex   -7.865161e+000 9.148960e+000 6.350000e+000
      vertex   -7.579474e+000 9.387001e+000 1.270000e+001
    endloop
  endfacet
  facet normal 6.680638e-001 -7.441039e-001 3.469905e-004
    outer loop
      vertex   -7.971041e+000 9.056861e+000 1.270000e+001
      vertex   -8.251488e+000 8.802112e+000 6.350000e+000
      vertex   -7.865161e+000 9.148960e+000 6.350000e+000
    endloop
  endfacet
  facet normal 6.445925e-001 -7.645262e-001 3.405653e-004
    outer loop
      vertex   -7.971041e+000 9.056861e+000 0.000000e+000
      vertex   -7.579474e+000 9.387001e+000 0.000000e+000
      vertex   -7.865161e+000 9.148960e+000 6.350000e+000
    endloop
  endfacet
  facet normal 6.354323e-001 -7.721565e-001 -3.575934e-004
    outer loop
      vertex   -7.865161e+000 9.148960e+000 6.350000e+000
      vertex   -7.579474e+000 9.387001e+000 0.000000e+000
      vertex   -7.464270e+000 9.478866e+000 6.350000e+000
    endloop
  endfacet
  facet normal 6.115643e-001 -7.911946e-001 -3.508468e-004
    outer loop
      vertex   -7.579474e+000 9.387001e+000 1.270000e+001
      vertex   -7.464270e+000 9.478866e+000 6.350000e+000
      vertex   -7.174249e+000 9.700225e+000 1.270000e+001
    endloop
  endfacet
  facet normal 6.354323e-001 -7.721565e-001 3.575934e-004
    outer loop
      vertex   -7.579474e+000 9.387001e+000 1.270000e+001
      vertex   -7.865161e+000 9.148960e+000 6.350000e+000
      vertex   -7.464270e+000 9.478866e+000 6.350000e+000
    endloop
  endfacet
  facet normal 6.115643e-001 -7.911946e-001 3.508468e-004
    outer loop
      vertex   -7.579474e+000 9.387001e+000 0.000000e+000
      vertex   -7.174249e+000 9.700225e+000 0.000000e+000
      vertex   -7.464270e+000 9.478866e+000 6.350000e+000
    endloop
  endfacet
  facet normal 6.016240e-001 -7.987793e-001 -3.675536e-004
    outer loop
      vertex   -7.464270e+000 9.478866e+000 6.350000e+000
      vertex   -7.174249e+000 9.700225e+000 0.000000e+000
      vertex   -7.049557e+000 9.791219e+000 6.350000e+000
    endloop
  endfacet
  facet normal 5.774340e-001 -8.164373e-001 -3.604858e-004
    outer loop
      vertex   -7.174249e+000 9.700225e+000 1.270000e+001
      vertex   -7.049557e+000 9.791219e+000 6.350000e+000
      vertex   -6.756096e+000 9.995969e+000 1.270000e+001
    endloop
  endfacet
  facet normal 6.016240e-001 -7.987793e-001 3.675536e-004
    outer loop
      vertex   -7.174249e+000 9.700225e+000 1.270000e+001
      vertex   -7.464270e+000 9.478866e+000 6.350000e+000
      vertex   -7.049557e+000 9.791219e+000 6.350000e+000
    endloop
  endfacet
  facet normal 5.774340e-001 -8.164373e-001 3.604858e-004
    outer loop
      vertex   -7.174249e+000 9.700225e+000 0.000000e+000
      vertex   -6.756096e+000 9.995969e+000 0.000000e+000
      vertex   -7.049557e+000 9.791219e+000 6.350000e+000
    endloop
  endfacet
  facet normal 5.667017e-001 -8.239229e-001 -3.768713e-004
    outer loop
      vertex   -7.049557e+000 9.791219e+000 6.350000e+000
      vertex   -6.756096e+000 9.995969e+000 0.000000e+000
      vertex   -6.621790e+000 1.008544e+001 6.350000e+000
    endloop
  endfacet
  facet normal 5.422632e-001 -8.402086e-001 -3.694822e-004
    outer loop
      vertex   -6.756096e+000 9.995969e+000 1.270000e+001
      vertex   -6.621790e+000 1.008544e+001 6.350000e+000
      vertex   -6.325767e+000 1.027370e+001 1.270000e+001
    endloop
  endfacet
  facet normal 5.667017e-001 -8.239229e-001 3.768713e-004
    outer loop
      vertex   -6.756096e+000 9.995969e+000 1.270000e+001
      vertex   -7.049557e+000 9.791219e+000 6.350000e+000
      vertex   -6.621790e+000 1.008544e+001 6.350000e+000
    endloop
  endfacet
  facet normal 5.422632e-001 -8.402086e-001 3.694822e-004
    outer loop
      vertex   -6.756096e+000 9.995969e+000 0.000000e+000
      vertex   -6.325767e+000 1.027370e+001 0.000000e+000
      vertex   -6.621790e+000 1.008544e+001 6.350000e+000
    endloop
  endfacet
  facet normal 5.307300e-001 -8.475409e-001 -3.855463e-004
    outer loop
      vertex   -6.621790e+000 1.008544e+001 6.350000e+000
      vertex   -6.325767e+000 1.027370e+001 0.000000e+000
      vertex   -6.181761e+000 1.036099e+001 6.350000e+000
    endloop
  endfacet
  facet normal 5.061151e-001 -8.624659e-001 -3.778359e-004
    outer loop
      vertex   -6.325767e+000 1.027370e+001 1.270000e+001
      vertex   -6.181761e+000 1.036099e+001 6.350000e+000
      vertex   -5.884039e+000 1.053292e+001 1.270000e+001
    endloop
  endfacet
  facet normal 5.307300e-001 -8.475409e-001 3.855463e-004
    outer loop
      vertex   -6.325767e+000 1.027370e+001 1.270000e+001
      vertex   -6.621790e+000 1.008544e+001 6.350000e+000
      vertex   -6.181761e+000 1.036099e+001 6.350000e+000
    endloop
  endfacet
  facet normal 5.061151e-001 -8.624659e-001 3.778359e-004
    outer loop
      vertex   -6.325767e+000 1.027370e+001 0.000000e+000
      vertex   -5.884039e+000 1.053292e+001 0.000000e+000
      vertex   -6.181761e+000 1.036099e+001 6.350000e+000
    endloop
  endfacet
  facet normal 4.937755e-001 -8.695893e-001 -3.935788e-004
    outer loop
      vertex   -6.181761e+000 1.036099e+001 6.350000e+000
      vertex   -5.884039e+000 1.053292e+001 0.000000e+000
      vertex   -5.730285e+000 1.061735e+001 6.350000e+000
    endloop
  endfacet
  facet normal 4.690550e-001 -8.831689e-001 -3.855471e-004
    outer loop
      vertex   -5.884039e+000 1.053292e+001 1.270000e+001
      vertex   -5.730285e+000 1.061735e+001 6.350000e+000
      vertex   -5.431708e+000 1.077315e+001 1.270000e+001
    endloop
  endfacet
  facet normal 4.937755e-001 -8.695893e-001 3.935788e-004
    outer loop
      vertex   -5.884039e+000 1.053292e+001 1.270000e+001
      vertex   -6.181761e+000 1.036099e+001 6.350000e+000
      vertex   -5.730285e+000 1.061735e+001 6.350000e+000
    endloop
  endfacet
  facet normal 4.690550e-001 -8.831689e-001 3.855471e-004
    outer loop
      vertex   -5.884039e+000 1.053292e+001 0.000000e+000
      vertex   -5.431708e+000 1.077315e+001 0.000000e+000
      vertex   -5.730285e+000 1.061735e+001 6.350000e+000
    endloop
  endfacet
  facet normal 4.559067e-001 -8.900275e-001 -4.009687e-004
    outer loop
      vertex   -5.730285e+000 1.061735e+001 6.350000e+000
      vertex   -5.431708e+000 1.077315e+001 0.000000e+000
      vertex   -5.268197e+000 1.085405e+001 6.350000e+000
    endloop
  endfacet
  facet normal 4.311496e-001 -9.022804e-001 -3.926157e-004
    outer loop
      vertex   -5.431708e+000 1.077315e+001 1.270000e+001
      vertex   -5.268197e+000 1.085405e+001 6.350000e+000
      vertex   -4.969589e+000 1.099397e+001 1.270000e+001
    endloop
  endfacet
  facet normal 4.559067e-001 -8.900275e-001 4.009687e-004
    outer loop
      vertex   -5.431708e+000 1.077315e+001 1.270000e+001
      vertex   -5.730285e+000 1.061735e+001 6.350000e+000
      vertex   -5.268197e+000 1.085405e+001 6.350000e+000
    endloop
  endfacet
  facet normal 4.311496e-001 -9.022804e-001 3.926157e-004
    outer loop
      vertex   -5.431708e+000 1.077315e+001 0.000000e+000
      vertex   -4.969589e+000 1.099397e+001 0.000000e+000
      vertex   -5.268197e+000 1.085405e+001 6.350000e+000
    endloop
  endfacet
  facet normal 4.171936e-001 -9.088176e-001 -4.077160e-004
    outer loop
      vertex   -5.268197e+000 1.085405e+001 6.350000e+000
      vertex   -4.969589e+000 1.099397e+001 0.000000e+000
      vertex   -4.796354e+000 1.107065e+001 6.350000e+000
    endloop
  endfacet
  facet normal 3.924672e-001 -9.197659e-001 -3.990418e-004
    outer loop
      vertex   -4.969589e+000 1.099397e+001 1.270000e+001
      vertex   -4.796354e+000 1.107065e+001 6.350000e+000
      vertex   -4.498513e+000 1.119498e+001 1.270000e+001
    endloop
  endfacet
  facet normal 4.171936e-001 -9.088176e-001 4.077160e-004
    outer loop
      vertex   -4.969589e+000 1.099397e+001 1.270000e+001
      vertex   -5.268197e+000 1.085405e+001 6.350000e+000
      vertex   -4.796354e+000 1.107065e+001 6.350000e+000
    endloop
  endfacet
  facet normal 3.924672e-001 -9.197659e-001 3.990418e-004
    outer loop
      vertex   -4.969589e+000 1.099397e+001 0.000000e+000
      vertex   -4.498513e+000 1.119498e+001 0.000000e+000
      vertex   -4.796354e+000 1.107065e+001 6.350000e+000
    endloop
  endfacet
  facet normal 3.777079e-001 -9.259247e-001 -4.138208e-004
    outer loop
      vertex   -4.796354e+000 1.107065e+001 6.350000e+000
      vertex   -4.498513e+000 1.119498e+001 0.000000e+000
      vertex   -4.315629e+000 1.126675e+001 6.350000e+000
    endloop
  endfacet
  facet normal 3.530777e-001 -9.355939e-001 -4.048252e-004
    outer loop
      vertex   -4.498513e+000 1.119498e+001 1.270000e+001
      vertex   -4.315629e+000 1.126675e+001 6.350000e+000
      vertex   -4.019332e+000 1.137582e+001 1.270000e+001
    endloop
  endfacet
  facet normal 3.777079e-001 -9.259247e-001 4.138208e-004
    outer loop
      vertex   -4.498513e+000 1.119498e+001 1.270000e+001
      vertex   -4.796354e+000 1.107065e+001 6.350000e+000
      vertex   -4.315629e+000 1.126675e+001 6.350000e+000
    endloop
  endfacet
  facet normal 3.530777e-001 -9.355939e-001 4.048252e-004
    outer loop
      vertex   -4.498513e+000 1.119498e+001 0.000000e+000
      vertex   -4.019332e+000 1.137582e+001 0.000000e+000
      vertex   -4.315629e+000 1.126675e+001 6.350000e+000
    endloop
  endfacet
  facet normal 3.375229e-001 -9.413172e-001 -4.192829e-004
    outer loop
      vertex   -4.315629e+000 1.126675e+001 6.350000e+000
      vertex   -4.019332e+000 1.137582e+001 0.000000e+000
      vertex   -3.826913e+000 1.144198e+001 6.350000e+000
    endloop
  endfacet
  facet normal 3.130518e-001 -9.497360e-001 -4.099660e-004
    outer loop
      vertex   -4.019332e+000 1.137582e+001 1.270000e+001
      vertex   -3.826913e+000 1.144198e+001 6.350000e+000
      vertex   -3.532907e+000 1.153615e+001 1.270000e+001
    endloop
  endfacet
  facet normal 3.375229e-001 -9.413172e-001 4.192829e-004
    outer loop
      vertex   -4.019332e+000 1.137582e+001 1.270000e+001
      vertex   -4.315629e+000 1.126675e+001 6.350000e+000
      vertex   -3.826913e+000 1.144198e+001 6.350000e+000
    endloop
  endfacet
  facet normal 3.130518e-001 -9.497360e-001 4.099660e-004
    outer loop
      vertex   -4.019332e+000 1.137582e+001 0.000000e+000
      vertex   -3.532907e+000 1.153615e+001 0.000000e+000
      vertex   -3.826913e+000 1.144198e+001 6.350000e+000
    endloop
  endfacet
  facet normal 2.967128e-001 -9.549667e-001 -4.241024e-004
    outer loop
      vertex   -3.826913e+000 1.144198e+001 6.350000e+000
      vertex   -3.532907e+000 1.153615e+001 0.000000e+000
      vertex   -3.331110e+000 1.159603e+001 6.350000e+000
    endloop
  endfacet
  facet normal 2.724618e-001 -9.621665e-001 -4.144642e-004
    outer loop
      vertex   -3.532907e+000 1.153615e+001 1.270000e+001
      vertex   -3.331110e+000 1.159603e+001 6.350000e+000
      vertex   -3.040115e+000 1.167570e+001 1.270000e+001
    endloop
  endfacet
  facet normal 2.967128e-001 -9.549667e-001 4.241024e-004
    outer loop
      vertex   -3.532907e+000 1.153615e+001 1.270000e+001
      vertex   -3.826913e+000 1.144198e+001 6.350000e+000
      vertex   -3.331110e+000 1.159603e+001 6.350000e+000
    endloop
  endfacet
  facet normal 2.724618e-001 -9.621665e-001 4.144642e-004
    outer loop
      vertex   -3.532907e+000 1.153615e+001 0.000000e+000
      vertex   -3.040115e+000 1.167570e+001 0.000000e+000
      vertex   -3.331110e+000 1.159603e+001 6.350000e+000
    endloop
  endfacet
  facet normal 2.553533e-001 -9.668477e-001 -4.282793e-004
    outer loop
      vertex   -3.331110e+000 1.159603e+001 6.350000e+000
      vertex   -3.040115e+000 1.167570e+001 0.000000e+000
      vertex   -2.829139e+000 1.172861e+001 6.350000e+000
    endloop
  endfacet
  facet normal 2.313808e-001 -9.728632e-001 -4.183198e-004
    outer loop
      vertex   -3.040115e+000 1.167570e+001 1.270000e+001
      vertex   -2.829139e+000 1.172861e+001 6.350000e+000
      vertex   -2.541845e+000 1.179420e+001 1.270000e+001
    endloop
  endfacet
  facet normal 2.553533e-001 -9.668477e-001 4.282793e-004
    outer loop
      vertex   -3.040115e+000 1.167570e+001 1.270000e+001
      vertex   -3.331110e+000 1.159603e+001 6.350000e+000
      vertex   -2.829139e+000 1.172861e+001 6.350000e+000
    endloop
  endfacet
  facet normal 2.313808e-001 -9.728632e-001 4.183198e-004
    outer loop
      vertex   -3.040115e+000 1.167570e+001 0.000000e+000
      vertex   -2.541845e+000 1.179420e+001 0.000000e+000
      vertex   -2.829139e+000 1.172861e+001 6.350000e+000
    endloop
  endfacet
  facet normal 2.135209e-001 -9.769384e-001 -4.318136e-004
    outer loop
      vertex   -2.829139e+000 1.172861e+001 6.350000e+000
      vertex   -2.541845e+000 1.179420e+001 0.000000e+000
      vertex   -2.321928e+000 1.183946e+001 6.350000e+000
    endloop
  endfacet
  facet normal 1.898828e-001 -9.818067e-001 -4.215329e-004
    outer loop
      vertex   -2.541845e+000 1.179420e+001 1.270000e+001
      vertex   -2.321928e+000 1.183946e+001 6.350000e+000
      vertex   -2.038995e+000 1.189146e+001 1.270000e+001
    endloop
  endfacet
  facet normal 2.135209e-001 -9.769384e-001 4.318136e-004
    outer loop
      vertex   -2.541845e+000 1.179420e+001 1.270000e+001
      vertex   -2.829139e+000 1.172861e+001 6.350000e+000
      vertex   -2.321928e+000 1.183946e+001 6.350000e+000
    endloop
  endfacet
  facet normal 1.898828e-001 -9.818067e-001 4.215329e-004
    outer loop
      vertex   -2.541845e+000 1.179420e+001 0.000000e+000
      vertex   -2.038995e+000 1.189146e+001 0.000000e+000
      vertex   -2.321928e+000 1.183946e+001 6.350000e+000
    endloop
  endfacet
  facet normal 1.712931e-001 -9.852200e-001 -4.347054e-004
    outer loop
      vertex   -2.321928e+000 1.183946e+001 6.350000e+000
      vertex   -2.038995e+000 1.189146e+001 0.000000e+000
      vertex   -1.810418e+000 1.192840e+001 6.350000e+000
    endloop
  endfacet
  facet normal 1.480427e-001 -9.889809e-001 -4.241033e-004
    outer loop
      vertex   -2.038995e+000 1.189146e+001 1.270000e+001
      vertex   -1.810418e+000 1.192840e+001 6.350000e+000
      vertex   -1.532470e+000 1.196728e+001 1.270000e+001
    endloop
  endfacet
  facet normal 1.712931e-001 -9.852200e-001 4.347054e-004
    outer loop
      vertex   -2.038995e+000 1.189146e+001 1.270000e+001
      vertex   -2.321928e+000 1.183946e+001 6.350000e+000
      vertex   -1.810418e+000 1.192840e+001 6.350000e+000
    endloop
  endfacet
  facet normal 1.480427e-001 -9.889809e-001 4.241033e-004
    outer loop
      vertex   -2.038995e+000 1.189146e+001 0.000000e+000
      vertex   -1.532470e+000 1.196728e+001 0.000000e+000
      vertex   -1.810418e+000 1.192840e+001 6.350000e+000
    endloop
  endfacet
  facet normal 1.287482e-001 -9.916772e-001 -4.369545e-004
    outer loop
      vertex   -1.810418e+000 1.192840e+001 6.350000e+000
      vertex   -1.532470e+000 1.196728e+001 0.000000e+000
      vertex   -1.295556e+000 1.199524e+001 6.350000e+000
    endloop
  endfacet
  facet normal 1.059357e-001 -9.943729e-001 -4.260311e-004
    outer loop
      vertex   -1.532470e+000 1.196728e+001 1.270000e+001
      vertex   -1.295556e+000 1.199524e+001 6.350000e+000
      vertex   -1.023183e+000 1.202154e+001 1.270000e+001
    endloop
  endfacet
  facet normal 1.287482e-001 -9.916772e-001 4.369545e-004
    outer loop
      vertex   -1.532470e+000 1.196728e+001 1.270000e+001
      vertex   -1.810418e+000 1.192840e+001 6.350000e+000
      vertex   -1.295556e+000 1.199524e+001 6.350000e+000
    endloop
  endfacet
  facet normal 1.059357e-001 -9.943729e-001 4.260311e-004
    outer loop
      vertex   -1.532470e+000 1.196728e+001 0.000000e+000
      vertex   -1.023183e+000 1.202154e+001 0.000000e+000
      vertex   -1.295556e+000 1.199524e+001 6.350000e+000
    endloop
  endfacet
  facet normal 8.596479e-002 -9.962981e-001 -4.385610e-004
    outer loop
      vertex   -1.295556e+000 1.199524e+001 6.350000e+000
      vertex   -1.023183e+000 1.202154e+001 0.000000e+000
      vertex   -7.782944e-001 1.203987e+001 6.350000e+000
    endloop
  endfacet
  facet normal 6.363789e-002 -9.979730e-001 -4.273163e-004
    outer loop
      vertex   -1.023183e+000 1.202154e+001 1.270000e+001
      vertex   -7.782944e-001 1.203987e+001 6.350000e+000
      vertex   -5.120531e-001 1.205413e+001 1.270000e+001
    endloop
  endfacet
  facet normal 8.596479e-002 -9.962981e-001 4.385610e-004
    outer loop
      vertex   -1.023183e+000 1.202154e+001 1.270000e+001
      vertex   -1.295556e+000 1.199524e+001 6.350000e+000
      vertex   -7.782944e-001 1.203987e+001 6.350000e+000
    endloop
  endfacet
  facet normal 6.363789e-002 -9.979730e-001 4.273163e-004
    outer loop
      vertex   -1.023183e+000 1.202154e+001 0.000000e+000
      vertex   -5.120531e-001 1.205413e+001 0.000000e+000
      vertex   -7.782944e-001 1.203987e+001 6.350000e+000
    endloop
  endfacet
  facet normal 4.302223e-002 -9.990740e-001 -4.395249e-004
    outer loop
      vertex   -7.782944e-001 1.203987e+001 6.350000e+000
      vertex   -5.120531e-001 1.205413e+001 0.000000e+000
      vertex   -2.595917e-001 1.206221e+001 6.350000e+000
    endloop
  endfacet
  facet normal 2.122538e-002 -9.997746e-001 -4.279589e-004
    outer loop
      vertex   -5.120531e-001 1.205413e+001 1.270000e+001
      vertex   -2.595917e-001 1.206221e+001 6.350000e+000
      vertex   0.000000e+000 1.206500e+001 1.270000e+001
    endloop
  endfacet
  facet normal 4.302223e-002 -9.990740e-001 4.395249e-004
    outer loop
      vertex   -5.120531e-001 1.205413e+001 1.270000e+001
      vertex   -7.782944e-001 1.203987e+001 6.350000e+000
      vertex   -2.595917e-001 1.206221e+001 6.350000e+000
    endloop
  endfacet
  facet normal 2.122538e-002 -9.997746e-001 4.279589e-004
    outer loop
      vertex   -5.120531e-001 1.205413e+001 0.000000e+000
      vertex   7.387682e-016 1.206500e+001 0.000000e+000
      vertex   -2.595917e-001 1.206221e+001 6.350000e+000
    endloop
  endfacet
  facet normal 1.075867e-002 -9.999421e-001 6.258397e-019
    outer loop
      vertex   -2.595917e-001 1.206221e+001 6.350000e+000
      vertex   7.387682e-016 1.206500e+001 0.000000e+000
      vertex   0.000000e+000 1.206500e+001 1.270000e+001
    endloop
  endfacet
  facet normal -2.585365e-016 -1.000000e+000 0.000000e+000
    outer loop
      vertex   -1.778000e+001 0.000000e+000 0.000000e+000
      vertex   -1.206500e+001 -1.477536e-015 0.000000e+000
      vertex   -1.778000e+001 0.000000e+000 1.270000e+001
    endloop
  endfacet
  facet normal -2.585365e-016 -1.000000e+000 0.000000e+000
    outer loop
      vertex   -1.778000e+001 0.000000e+000 1.270000e+001
      vertex   -1.206500e+001 -1.477536e-015 0.000000e+000
      vertex   -1.206500e+001 -1.477536e-015 1.270000e+001
    endloop
  endfacet
  facet normal 0.000000e+000 -0.000000e+000 1.000000e+000
    outer loop
      vertex   -1.206500e+001 -1.477536e-015 1.270000e+001
      vertex   -1.205413e+001 5.120531e-001 1.270000e+001
      vertex   -1.778000e+001 0.000000e+000 1.270000e+001
    endloop
  endfacet
  facet normal 0.000000e+000 0.000000e+000 1.000000e+000
    outer loop
      vertex   -1.778000e+001 0.000000e+000 1.270000e+001
      vertex   -1.205413e+001 5.120531e-001 1.270000e+001
      vertex   -1.202154e+001 1.023183e+000 1.270000e+001
    endloop
  endfacet
  facet normal -0.000000e+000 0.000000e+000 1.000000e+000
    outer loop
      vertex   -1.196728e+001 1.532470e+000 1.270000e+001
      vertex   -1.778000e+001 0.000000e+000 1.270000e+001
      vertex   -1.202154e+001 1.023183e+000 1.270000e+001
    endloop
  endfacet
  facet normal 0.000000e+000 -0.000000e+000 1.000000e+000
    outer loop
      vertex   -1.196728e+001 1.532470e+000 1.270000e+001
      vertex   -1.189146e+001 2.038995e+000 1.270000e+001
      vertex   -1.778000e+001 0.000000e+000 1.270000e+001
    endloop
  endfacet
  facet normal 0.000000e+000 0.000000e+000 1.000000e+000
    outer loop
      vertex   -1.778000e+001 0.000000e+000 1.270000e+001
      vertex   -1.189146e+001 2.038995e+000 1.270000e+001
      vertex   -1.179420e+001 2.541845e+000 1.270000e+001
    endloop
  endfacet
  facet normal -0.000000e+000 0.000000e+000 1.000000e+000
    outer loop
      vertex   -1.167570e+001 3.040115e+000 1.270000e+001
      vertex   -1.778000e+001 0.000000e+000 1.270000e+001
      vertex   -1.179420e+001 2.541845e+000 1.270000e+001
    endloop
  endfacet
  facet normal 0.000000e+000 0.000000e+000 1.000000e+000
    outer loop
      vertex   -1.167570e+001 3.040115e+000 1.270000e+001
      vertex   -1.778000e+001 1.016000e+001 1.270000e+001
      vertex   -1.778000e+001 0.000000e+000 1.270000e+001
    endloop
  endfacet
  facet normal 0.000000e+000 -0.000000e+000 1.000000e+000
    outer loop
      vertex   -1.167570e+001 3.040115e+000 1.270000e+001
      vertex   -1.153615e+001 3.532907e+000 1.270000e+001
      vertex   -1.778000e+001 1.016000e+001 1.270000e+001
    endloop
  endfacet
  facet normal -0.000000e+000 0.000000e+000 1.000000e+000
    outer loop
      vertex   -1.778000e+001 1.016000e+001 1.270000e+001
      vertex   -1.153615e+001 3.532907e+000 1.270000e+001
      vertex   -1.137582e+001 4.019332e+000 1.270000e+001
    endloop
  endfacet
  facet normal 0.000000e+000 0.000000e+000 1.000000e+000
    outer loop
      vertex   -1.119498e+001 4.498513e+000 1.270000e+001
      vertex   -1.778000e+001 1.016000e+001 1.270000e+001
      vertex   -1.137582e+001 4.019332e+000 1.270000e+001
    endloop
  endfacet
  facet normal 0.000000e+000 -0.000000e+000 1.000000e+000
    outer loop
      vertex   -1.119498e+001 4.498513e+000 1.270000e+001
      vertex   -1.099397e+001 4.969589e+000 1.270000e+001
      vertex   -1.778000e+001 1.016000e+001 1.270000e+001
    endloop
  endfacet
  facet normal -0.000000e+000 0.000000e+000 1.000000e+000
    outer loop
      vertex   -1.778000e+001 1.016000e+001 1.270000e+001
      vertex   -1.099397e+001 4.969589e+000 1.270000e+001
      vertex   -1.077315e+001 5.431708e+000 1.270000e+001
    endloop
  endfacet
  facet normal 0.000000e+000 0.000000e+000 1.000000e+000
    outer loop
      vertex   -1.053292e+001 5.884039e+000 1.270000e+001
      vertex   -1.778000e+001 1.016000e+001 1.270000e+001
      vertex   -1.077315e+001 5.431708e+000 1.270000e+001
    endloop
  endfacet
  facet normal 0.000000e+000 -0.000000e+000 1.000000e+000
    outer loop
      vertex   -1.053292e+001 5.884039e+000 1.270000e+001
      vertex   -1.027370e+001 6.325767e+000 1.270000e+001
      vertex   -1.778000e+001 1.016000e+001 1.270000e+001
    endloop
  endfacet
  facet normal -0.000000e+000 0.000000e+000 1.000000e+000
    outer loop
      vertex   -1.778000e+001 1.016000e+001 1.270000e+001
      vertex   -1.027370e+001 6.325767e+000 1.270000e+001
      vertex   -9.995969e+000 6.756096e+000 1.270000e+001
    endloop
  endfacet
  facet normal 0.000000e+000 0.000000e+000 1.000000e+000
    outer loop
      vertex   -9.700225e+000 7.174249e+000 1.270000e+001
      vertex   -1.778000e+001 1.016000e+001 1.270000e+001
      vertex   -9.995969e+000 6.756096e+000 1.270000e+001
    endloop
  endfacet
  facet normal 0.000000e+000 -0.000000e+000 1.000000e+000
    outer loop
      vertex   -9.700225e+000 7.174249e+000 1.270000e+001
      vertex   -9.387001e+000 7.579474e+000 1.270000e+001
      vertex   -1.778000e+001 1.016000e+001 1.270000e+001
    endloop
  endfacet
  facet normal -0.000000e+000 0.000000e+000 1.000000e+000
    outer loop
      vertex   -1.778000e+001 1.016000e+001 1.270000e+001
      vertex   -9.387001e+000 7.579474e+000 1.270000e+001
      vertex   -9.056861e+000 7.971041e+000 1.270000e+001
    endloop
  endfacet
  facet normal 0.000000e+000 0.000000e+000 1.000000e+000
    outer loop
      vertex   -8.710400e+000 8.348242e+000 1.270000e+001
      vertex   -1.778000e+001 1.016000e+001 1.270000e+001
      vertex   -9.056861e+000 7.971041e+000 1.270000e+001
    endloop
  endfacet
  facet normal 0.000000e+000 -0.000000e+000 1.000000e+000
    outer loop
      vertex   -8.710400e+000 8.348242e+000 1.270000e+001
      vertex   -8.348242e+000 8.710400e+000 1.270000e+001
      vertex   -1.778000e+001 1.016000e+001 1.270000e+001
    endloop
  endfacet
  facet normal -0.000000e+000 0.000000e+000 1.000000e+000
    outer loop
      vertex   -1.778000e+001 1.016000e+001 1.270000e+001
      vertex   -8.348242e+000 8.710400e+000 1.270000e+001
      vertex   -7.971041e+000 9.056861e+000 1.270000e+001
    endloop
  endfacet
  facet normal 0.000000e+000 0.000000e+000 1.000000e+000
    outer loop
      vertex   -7.579474e+000 9.387001e+000 1.270000e+001
      vertex   -1.778000e+001 1.016000e+001 1.270000e+001
      vertex   -7.971041e+000 9.056861e+000 1.270000e+001
    endloop
  endfacet
  facet normal 0.000000e+000 -0.000000e+000 1.000000e+000
    outer loop
      vertex   -7.579474e+000 9.387001e+000 1.270000e+001
      vertex   -7.174249e+000 9.700225e+000 1.270000e+001
      vertex   -1.778000e+001 1.016000e+001 1.270000e+001
    endloop
  endfacet
  facet normal -0.000000e+000 0.000000e+000 1.000000e+000
    outer loop
      vertex   -1.778000e+001 1.016000e+001 1.270000e+001
      vertex   -7.174249e+000 9.700225e+000 1.270000e+001
      vertex   -6.756096e+000 9.995969e+000 1.270000e+001
    endloop
  endfacet
  facet normal -0.000000e+000 0.000000e+000 1.000000e+000
    outer loop
      vertex   0.000000e+000 2.539999e+001 1.270000e+001
      vertex   -6.756096e+000 9.995969e+000 1.270000e+001
      vertex   -6.325767e+000 1.027370e+001 1.270000e+001
    endloop
  endfacet
  facet normal 0.000000e+000 -0.000000e+000 1.000000e+000
    outer loop
      vertex   -5.884039e+000 1.053292e+001 1.270000e+001
      vertex   0.000000e+000 2.539999e+001 1.270000e+001
      vertex   -6.325767e+000 1.027370e+001 1.270000e+001
    endloop
  endfacet
  facet normal 0.000000e+000 0.000000e+000 1.000000e+000
    outer loop
      vertex   -5.884039e+000 1.053292e+001 1.270000e+001
      vertex   -5.431708e+000 1.077315e+001 1.270000e+001
      vertex   0.000000e+000 2.539999e+001 1.270000e+001
    endloop
  endfacet
  facet normal -0.000000e+000 0.000000e+000 1.000000e+000
    outer loop
      vertex   0.000000e+000 2.539999e+001 1.270000e+001
      vertex   -5.431708e+000 1.077315e+001 1.270000e+001
      vertex   -4.969589e+000 1.099397e+001 1.270000e+001
    endloop
  endfacet
  facet normal 0.000000e+000 -0.000000e+000 1.000000e+000
    outer loop
      vertex   -4.498513e+000 1.119498e+001 1.270000e+001
      vertex   0.000000e+000 2.539999e+001 1.270000e+001
      vertex   -4.969589e+000 1.099397e+001 1.270000e+001
    endloop
  endfacet
  facet normal 0.000000e+000 0.000000e+000 1.000000e+000
    outer loop
      vertex   -4.498513e+000 1.119498e+001 1.270000e+001
      vertex   -4.019332e+000 1.137582e+001 1.270000e+001
      vertex   0.000000e+000 2.539999e+001 1.270000e+001
    endloop
  endfacet
  facet normal -0.000000e+000 0.000000e+000 1.000000e+000
    outer loop
      vertex   0.000000e+000 2.539999e+001 1.270000e+001
      vertex   -4.019332e+000 1.137582e+001 1.270000e+001
      vertex   -3.532907e+000 1.153615e+001 1.270000e+001
    endloop
  endfacet
  facet normal 0.000000e+000 -0.000000e+000 1.000000e+000
    outer loop
      vertex   -3.040115e+000 1.167570e+001 1.270000e+001
      vertex   0.000000e+000 2.539999e+001 1.270000e+001
      vertex   -3.532907e+000 1.153615e+001 1.270000e+001
    endloop
  endfacet
  facet normal 0.000000e+000 0.000000e+000 1.000000e+000
    outer loop
      vertex   -3.040115e+000 1.167570e+001 1.270000e+001
      vertex   -2.541845e+000 1.179420e+001 1.270000e+001
      vertex   0.000000e+000 2.539999e+001 1.270000e+001
    endloop
  endfacet
  facet normal -0.000000e+000 0.000000e+000 1.000000e+000
    outer loop
      vertex   0.000000e+000 2.539999e+001 1.270000e+001
      vertex   -2.541845e+000 1.179420e+001 1.270000e+001
      vertex   -2.038995e+000 1.189146e+001 1.270000e+001
    endloop
  endfacet
  facet normal 0.000000e+000 -0.000000e+000 1.000000e+000
    outer loop
      vertex   -1.532470e+000 1.196728e+001 1.270000e+001
      vertex   0.000000e+000 2.539999e+001 1.270000e+001
      vertex   -2.038995e+000 1.189146e+001 1.270000e+001
    endloop
  endfacet
  facet normal 0.000000e+000 0.000000e+000 1.000000e+000
    outer loop
      vertex   -1.532470e+000 1.196728e+001 1.270000e+001
      vertex   -1.023183e+000 1.202154e+001 1.270000e+001
      vertex   0.000000e+000 2.539999e+001 1.270000e+001
    endloop
  endfacet
  facet normal -0.000000e+000 0.000000e+000 1.000000e+000
    outer loop
      vertex   0.000000e+000 2.539999e+001 1.270000e+001
      vertex   -1.023183e+000 1.202154e+001 1.270000e+001
      vertex   -5.120531e-001 1.205413e+001 1.270000e+001
    endloop
  endfacet
  facet normal 0.000000e+000 -0.000000e+000 1.000000e+000
    outer loop
      vertex   0.000000e+000 1.206500e+001 1.270000e+001
      vertex   0.000000e+000 2.539999e+001 1.270000e+001
      vertex   -5.120531e-001 1.205413e+001 1.270000e+001
    endloop
  endfacet
  facet normal -0.000000e+000 0.000000e+000 1.000000e+000
    outer loop
      vertex   -1.778000e+001 1.016000e+001 1.270000e+001
      vertex   -6.756096e+000 9.995969e+000 1.270000e+001
      vertex   0.000000e+000 2.539999e+001 1.270000e+001
    endloop
  endfacet
  facet normal 0.000000e+000 0.000000e+000 -1.000000e+000
    outer loop
      vertex   -1.206500e+001 -1.477536e-015 0.000000e+000
      vertex   -1.778000e+001 0.000000e+000 0.000000e+000
      vertex   -1.205413e+001 5.120531e-001 0.000000e+000
    endloop
  endfacet
  facet normal -0.000000e+000 0.000000e+000 -1.000000e+000
    outer loop
      vertex   -1.205413e+001 5.120531e-001 0.000000e+000
      vertex   -1.778000e+001 0.000000e+000 0.000000e+000
      vertex   -1.202154e+001 1.023183e+000 0.000000e+000
    endloop
  endfacet
  facet normal -0.000000e+000 0.000000e+000 -1.000000e+000
    outer loop
      vertex   -1.202154e+001 1.023183e+000 0.000000e+000
      vertex   -1.778000e+001 0.000000e+000 0.000000e+000
      vertex   -1.196728e+001 1.532470e+000 0.000000e+000
    endloop
  endfacet
  facet normal -0.000000e+000 0.000000e+000 -1.000000e+000
    outer loop
      vertex   -1.196728e+001 1.532470e+000 0.000000e+000
      vertex   -1.778000e+001 0.000000e+000 0.000000e+000
      vertex   -1.189146e+001 2.038995e+000 0.000000e+000
    endloop
  endfacet
  facet normal -0.000000e+000 0.000000e+000 -1.000000e+000
    outer loop
      vertex   -1.189146e+001 2.038995e+000 0.000000e+000
      vertex   -1.778000e+001 0.000000e+000 0.000000e+000
      vertex   -1.179420e+001 2.541845e+000 0.000000e+000
    endloop
  endfacet
  facet normal -0.000000e+000 0.000000e+000 -1.000000e+000
    outer loop
      vertex   -1.179420e+001 2.541845e+000 0.000000e+000
      vertex   -1.778000e+001 0.000000e+000 0.000000e+000
      vertex   -1.167570e+001 3.040115e+000 0.000000e+000
    endloop
  endfacet
  facet normal -0.000000e+000 0.000000e+000 -1.000000e+000
    outer loop
      vertex   -1.167570e+001 3.040115e+000 0.000000e+000
      vertex   -1.778000e+001 0.000000e+000 0.000000e+000
      vertex   -1.778000e+001 1.016000e+001 0.000000e+000
    endloop
  endfacet
  facet normal 0.000000e+000 0.000000e+000 -1.000000e+000
    outer loop
      vertex   -1.153615e+001 3.532907e+000 0.000000e+000
      vertex   -1.778000e+001 1.016000e+001 0.000000e+000
      vertex   -1.137582e+001 4.019332e+000 0.000000e+000
    endloop
  endfacet
  facet normal -0.000000e+000 0.000000e+000 -1.000000e+000
    outer loop
      vertex   -1.153615e+001 3.532907e+000 0.000000e+000
      vertex   -1.167570e+001 3.040115e+000 0.000000e+000
      vertex   -1.778000e+001 1.016000e+001 0.000000e+000
    endloop
  endfacet
  facet normal -0.000000e+000 0.000000e+000 -1.000000e+000
    outer loop
      vertex   0.000000e+000 2.539999e+001 0.000000e+000
      vertex   -6.756096e+000 9.995969e+000 0.000000e+000
      vertex   -1.778000e+001 1.016000e+001 0.000000e+000
    endloop
  endfacet
  facet normal 0.000000e+000 0.000000e+000 -1.000000e+000
    outer loop
      vertex   0.000000e+000 2.539999e+001 0.000000e+000
      vertex   -6.325767e+000 1.027370e+001 0.000000e+000
      vertex   -6.756096e+000 9.995969e+000 0.000000e+000
    endloop
  endfacet
  facet normal 0.000000e+000 0.000000e+000 -1.000000e+000
    outer loop
      vertex   0.000000e+000 2.539999e+001 0.000000e+000
      vertex   -5.884039e+000 1.053292e+001 0.000000e+000
      vertex   -6.325767e+000 1.027370e+001 0.000000e+000
    endloop
  endfacet
  facet normal 0.000000e+000 0.000000e+000 -1.000000e+000
    outer loop
      vertex   0.000000e+000 2.539999e+001 0.000000e+000
      vertex   -5.431708e+000 1.077315e+001 0.000000e+000
      vertex   -5.884039e+000 1.053292e+001 0.000000e+000
    endloop
  endfacet
  facet normal 0.000000e+000 0.000000e+000 -1.000000e+000
    outer loop
      vertex   0.000000e+000 2.539999e+001 0.000000e+000
      vertex   -4.969589e+000 1.099397e+001 0.000000e+000
      vertex   -5.431708e+000 1.077315e+001 0.000000e+000
    endloop
  endfacet
  facet normal 0.000000e+000 0.000000e+000 -1.000000e+000
    outer loop
      vertex   0.000000e+000 2.539999e+001 0.000000e+000
      vertex   -4.498513e+000 1.119498e+001 0.000000e+000
      vertex   -4.969589e+000 1.099397e+001 0.000000e+000
    endloop
  endfacet
  facet normal 0.000000e+000 0.000000e+000 -1.000000e+000
    outer loop
      vertex   0.000000e+000 2.539999e+001 0.000000e+000
      vertex   -4.019332e+000 1.137582e+001 0.000000e+000
      vertex   -4.498513e+000 1.119498e+001 0.000000e+000
    endloop
  endfacet
  facet normal 0.000000e+000 0.000000e+000 -1.000000e+000
    outer loop
      vertex   0.000000e+000 2.539999e+001 0.000000e+000
      vertex   -3.532907e+000 1.153615e+001 0.000000e+000
      vertex   -4.019332e+000 1.137582e+001 0.000000e+000
    endloop
  endfacet
  facet normal 0.000000e+000 0.000000e+000 -1.000000e+000
    outer loop
      vertex   0.000000e+000 2.539999e+001 0.000000e+000
      vertex   -3.040115e+000 1.167570e+001 0.000000e+000
      vertex   -3.532907e+000 1.153615e+001 0.000000e+000
    endloop
  endfacet
  facet normal 0.000000e+000 0.000000e+000 -1.000000e+000
    outer loop
      vertex   0.000000e+000 2.539999e+001 0.000000e+000
      vertex   -2.541845e+000 1.179420e+001 0.000000e+000
      vertex   -3.040115e+000 1.167570e+001 0.000000e+000
    endloop
  endfacet
  facet normal 0.000000e+000 0.000000e+000 -1.000000e+000
    outer loop
      vertex   0.000000e+000 2.539999e+001 0.000000e+000
      vertex   -2.038995e+000 1.189146e+001 0.000000e+000
      vertex   -2.541845e+000 1.179420e+001 0.000000e+000
    endloop
  endfacet
  facet normal 0.000000e+000 0.000000e+000 -1.000000e+000
    outer loop
      vertex   0.000000e+000 2.539999e+001 0.000000e+000
      vertex   -1.532470e+000 1.196728e+001 0.000000e+000
      vertex   -2.038995e+000 1.189146e+001 0.000000e+000
    endloop
  endfacet
  facet normal 0.000000e+000 0.000000e+000 -1.000000e+000
    outer loop
      vertex   0.000000e+000 2.539999e+001 0.000000e+000
      vertex   -1.023183e+000 1.202154e+001 0.000000e+000
      vertex   -1.532470e+000 1.196728e+001 0.000000e+000
    endloop
  endfacet
  facet normal 0.000000e+000 0.000000e+000 -1.000000e+000
    outer loop
      vertex   0.000000e+000 2.539999e+001 0.000000e+000
      vertex   -5.120531e-001 1.205413e+001 0.000000e+000
      vertex   -1.023183e+000 1.202154e+001 0.000000e+000
    endloop
  endfacet
  facet normal 0.000000e+000 -0.000000e+000 -1.000000e+000
    outer loop
      vertex   0.000000e+000 2.539999e+001 0.000000e+000
      vertex   7.387682e-016 1.206500e+001 0.000000e+000
      vertex   -5.120531e-001 1.205413e+001 0.000000e+000
    endloop
  endfacet
  facet normal -0.000000e+000 0.000000e+000 -1.000000e+000
    outer loop
      vertex   -6.756096e+000 9.995969e+000 0.000000e+000
      vertex   -7.174249e+000 9.700225e+000 0.000000e+000
      vertex   -1.778000e+001 1.016000e+001 0.000000e+000
    endloop
  endfacet
  facet normal 0.000000e+000 -0.000000e+000 -1.000000e+000
    outer loop
      vertex   -1.778000e+001 1.016000e+001 0.000000e+000
      vertex   -7.174249e+000 9.700225e+000 0.000000e+000
      vertex   -7.579474e+000 9.387001e+000 0.000000e+000
    endloop
  endfacet
  facet normal 0.000000e+000 0.000000e+000 -1.000000e+000
    outer loop
      vertex   -7.971041e+000 9.056861e+000 0.000000e+000
      vertex   -1.778000e+001 1.016000e+001 0.000000e+000
      vertex   -7.579474e+000 9.387001e+000 0.000000e+000
    endloop
  endfacet
  facet normal -0.000000e+000 0.000000e+000 -1.000000e+000
    outer loop
      vertex   -7.971041e+000 9.056861e+000 0.000000e+000
      vertex   -8.348242e+000 8.710400e+000 0.000000e+000
      vertex   -1.778000e+001 1.016000e+001 0.000000e+000
    endloop
  endfacet
  facet normal 0.000000e+000 -0.000000e+000 -1.000000e+000
    outer loop
      vertex   -1.778000e+001 1.016000e+001 0.000000e+000
      vertex   -8.348242e+000 8.710400e+000 0.000000e+000
      vertex   -8.710400e+000 8.348242e+000 0.000000e+000
    endloop
  endfacet
  facet normal 0.000000e+000 0.000000e+000 -1.000000e+000
    outer loop
      vertex   -9.056861e+000 7.971041e+000 0.000000e+000
      vertex   -1.778000e+001 1.016000e+001 0.000000e+000
      vertex   -8.710400e+000 8.348242e+000 0.000000e+000
    endloop
  endfacet
  facet normal -0.000000e+000 0.000000e+000 -1.000000e+000
    outer loop
      vertex   -9.056861e+000 7.971041e+000 0.000000e+000
      vertex   -9.387001e+000 7.579474e+000 0.000000e+000
      vertex   -1.778000e+001 1.016000e+001 0.000000e+000
    endloop
  endfacet
  facet normal 0.000000e+000 -0.000000e+000 -1.000000e+000
    outer loop
      vertex   -1.778000e+001 1.016000e+001 0.000000e+000
      vertex   -9.387001e+000 7.579474e+000 0.000000e+000
      vertex   -9.700225e+000 7.174249e+000 0.000000e+000
    endloop
  endfacet
  facet normal 0.000000e+000 0.000000e+000 -1.000000e+000
    outer loop
      vertex   -9.995969e+000 6.756096e+000 0.000000e+000
      vertex   -1.778000e+001 1.016000e+001 0.000000e+000
      vertex   -9.700225e+000 7.174249e+000 0.000000e+000
    endloop
  endfacet
  facet normal -0.000000e+000 0.000000e+000 -1.000000e+000
    outer loop
      vertex   -9.995969e+000 6.756096e+000 0.000000e+000
      vertex   -1.027370e+001 6.325767e+000 0.000000e+000
      vertex   -1.778000e+001 1.016000e+001 0.000000e+000
    endloop
  endfacet
  facet normal 0.000000e+000 -0.000000e+000 -1.000000e+000
    outer loop
      vertex   -1.778000e+001 1.016000e+001 0.000000e+000
      vertex   -1.027370e+001 6.325767e+000 0.000000e+000
      vertex   -1.053292e+001 5.884039e+000 0.000000e+000
    endloop
  endfacet
  facet normal 0.000000e+000 0.000000e+000 -1.000000e+000
    outer loop
      vertex   -1.077315e+001 5.431708e+000 0.000000e+000
      vertex   -1.778000e+001 1.016000e+001 0.000000e+000
      vertex   -1.053292e+001 5.884039e+000 0.000000e+000
    endloop
  endfacet
  facet normal -0.000000e+000 0.000000e+000 -1.000000e+000
    outer loop
      vertex   -1.077315e+001 5.431708e+000 0.000000e+000
      vertex   -1.099397e+001 4.969589e+000 0.000000e+000
      vertex   -1.778000e+001 1.016000e+001 0.000000e+000
    endloop
  endfacet
  facet normal 0.000000e+000 -0.000000e+000 -1.000000e+000
    outer loop
      vertex   -1.778000e+001 1.016000e+001 0.000000e+000
      vertex   -1.099397e+001 4.969589e+000 0.000000e+000
      vertex   -1.119498e+001 4.498513e+000 0.000000e+000
    endloop
  endfacet
  facet normal 0.000000e+000 0.000000e+000 -1.000000e+000
    outer loop
      vertex   -1.137582e+001 4.019332e+000 0.000000e+000
      vertex   -1.778000e+001 1.016000e+001 0.000000e+000
      vertex   -1.119498e+001 4.498513e+000 0.000000e+000
    endloop
  endfacet
endsolid
